<?xml version="1.0" ?>
<!-- Uploaded to: SVG Repo, www.svgrepo.com, Generator: SVG Repo Mixer Tools -->
<svg width="800px" height="800px" viewBox="0 0 64 64" xmlns="http://www.w3.org/2000/svg">
<defs>
<style>.cls-1{fill:#aa7b50;}.cls-2{fill:#e6e6e6;}.cls-3{fill:#ebebeb;}.cls-4{fill:#ffff97;}.cls-5{fill:#006837;}.cls-6{fill:#f15a24;}.cls-7{fill:#f47b50;}.cls-8{fill:#cf4d1f;}</style>
</defs>
<title/>
<g data-name="Layer 25" id="Layer_25">
<path class="cls-1" d="M41.971,2.267a1.01,1.01,0,0,0-.461-.619L38.964.14A1,1,0,0,0,37.6.479L14.146,38.971a1,1,0,0,0,.344,1.381l2.546,1.508a1,1,0,0,0,1.364-.339L41.854,3.029A1,1,0,0,0,41.971,2.267Z"/>
<path class="cls-2" d="M37.552,36.633,36.517,32.77a1,1,0,0,0-1.225-.708L12.11,38.273A1,1,0,0,0,11.4,39.5l1.035,3.864a2.992,2.992,0,0,0,3.674,2.121l19.319-5.176a3,3,0,0,0,2.121-3.674Z"/>
<path class="cls-3" d="M37.552,36.633,36.517,32.77a1,1,0,0,0-1.225-.708l-1.036.278a.967.967,0,0,1,.261.43l1.035,3.863a3,3,0,0,1-2.121,3.674l-19.048,5.1a2.939,2.939,0,0,0,.948.176,2.978,2.978,0,0,0,.781-.1l19.319-5.176a3,3,0,0,0,2.121-3.674Z"/>
<path class="cls-4" d="M37.748,29.312l-.519-1.933a4,4,0,0,0-4.9-2.828l-21.25,5.694a4.005,4.005,0,0,0-2.829,4.9l.518,1.932a4.008,4.008,0,0,0,3.865,2.965,3.967,3.967,0,0,0,1.034-.137l21.25-5.694a4,4,0,0,0,2.829-4.9Z"/>
<path class="cls-5" d="M26.852,35.337l-2.07-7.728a1,1,0,0,0-1.225-.707l-3.864,1.036a1,1,0,0,0-.707,1.224l2.071,7.728a1,1,0,0,0,.965.741,1.013,1.013,0,0,0,.259-.034l3.864-1.035A1,1,0,0,0,26.852,35.337Z"/>
<path class="cls-2" d="M53,56.011H29a1,1,0,0,0-1,1v4a3,3,0,0,0,3,3H51a3,3,0,0,0,3-3v-4A1,1,0,0,0,53,56.011Z"/>
<path class="cls-3" d="M53,56.011H51.053A.993.993,0,0,1,52,57v4a3,3,0,0,1-3,3H30.894c.036,0,.07.011.106.011H51a3,3,0,0,0,3-3v-4A1,1,0,0,0,53,56.011Z"/>
<rect class="cls-6" height="10" rx="4" width="30" x="26" y="48"/>
<path class="cls-7" d="M52,48H50a4,4,0,0,1,4,4v2a4,4,0,0,1-4,4h2a4,4,0,0,0,4-4V52A4,4,0,0,0,52,48Z"/>
<line class="cls-8" x1="28.999" x2="31" y1="56" y2="54"/>
<path class="cls-8" d="M29,57a1,1,0,0,1-.708-1.707l2-2a1,1,0,0,1,1.414,1.414l-2,2A1,1,0,0,1,29,57Z"/>
<line class="cls-8" x1="33.999" x2="36" y1="56" y2="54"/>
<path class="cls-8" d="M34,57a1,1,0,0,1-.707-1.707l2-2a1,1,0,0,1,1.414,1.414l-2,2A1,1,0,0,1,34,57Z"/>
<line class="cls-8" x1="38.999" x2="41" y1="56" y2="54"/>
<path class="cls-8" d="M39,57a1,1,0,0,1-.707-1.707l2-2a1,1,0,0,1,1.414,1.414l-2,2A1,1,0,0,1,39,57Z"/>
<line class="cls-8" x1="43.999" x2="46" y1="56" y2="54"/>
<path class="cls-8" d="M44,57a1,1,0,0,1-.707-1.707l2-2a1,1,0,0,1,1.414,1.414l-2,2A1,1,0,0,1,44,57Z"/>
<line class="cls-8" x1="48.999" x2="51" y1="56" y2="54"/>
<path class="cls-8" d="M49,57a1,1,0,0,1-.707-1.707l2-2a1,1,0,0,1,1.414,1.414l-2,2A1,1,0,0,1,49,57Z"/>
<path class="cls-1" d="M42.265.844,39.313.035A1,1,0,0,0,38.08.752L27.031,43.943a1,1,0,0,0,.705,1.213l2.951.809a1.035,1.035,0,0,0,.264.035,1,1,0,0,0,.969-.752L42.969,2.057A1,1,0,0,0,42.265.844Z"/>
</g>
</svg>