<?xml version="1.0" encoding="utf-8"?>
<!-- Uploaded to: SVG Repo, www.svgrepo.com, Generator: SVG Repo Mixer Tools -->
<svg width="800px" height="800px" viewBox="0 -28.63 360.003 360.003" xmlns="http://www.w3.org/2000/svg"><defs><style>.a{fill:#f8b8b4;}.b{fill:#ffffff;}.c{fill:#211715;}.d{fill:#ffde7f;}.e{fill:#ffda71;}.f{fill:#82cc7c;}</style></defs><path class="a" d="M325.867,208.136a31.941,31.941,0,0,0-10.979-2,29.954,29.954,0,0,0-19.031-20.058c-16.93-6.2-33.431,2.634-39.046,17.978-.256.7-.48,1.394-.69,2.089a31.844,31.844,0,0,0-11.362,1.988c-16.87,6.174-23.873,23.487-18.22,38.935a32.437,32.437,0,0,0,11.814,15.912,30.825,30.825,0,0,0,1.334,16.661c6.243,17.057,21.92,24.851,39.242,18.512a34.835,34.835,0,0,0,6.384-3.1,34.835,34.835,0,0,0,6.384,3.1c17.322,6.339,33-1.455,39.242-18.512a30.815,30.815,0,0,0,1.334-16.661,32.437,32.437,0,0,0,11.814-15.912C349.74,231.623,342.737,214.31,325.867,208.136Z"/><path class="b" d="M286.03,220.578a5.33,5.33,0,0,0-5.435,5.4,5.241,5.241,0,0,0,5.435,5.5,5.186,5.186,0,0,0,5.435-5.5A5.324,5.324,0,0,0,286.03,220.578Z"/><path class="b" d="M302.831,233.539a5.328,5.328,0,0,0-5.434,5.4,5.24,5.24,0,0,0,5.434,5.5,5.186,5.186,0,0,0,5.435-5.5A5.324,5.324,0,0,0,302.831,233.539Z"/><path class="b" d="M297.018,254.5a5.33,5.33,0,0,0-5.435,5.4,5.24,5.24,0,0,0,5.435,5.5,5.186,5.186,0,0,0,5.435-5.5A5.324,5.324,0,0,0,297.018,254.5Z"/><path class="b" d="M267.8,233.174a5.329,5.329,0,0,0-5.435,5.4,5.241,5.241,0,0,0,5.435,5.5,5.186,5.186,0,0,0,5.434-5.5A5.324,5.324,0,0,0,267.8,233.174Z"/><path class="b" d="M274.683,254.9a5.329,5.329,0,0,0-5.434,5.4,5.24,5.24,0,0,0,5.434,5.5,5.186,5.186,0,0,0,5.435-5.5A5.324,5.324,0,0,0,274.683,254.9Z"/><path class="c" d="M326.505,205.822a35.27,35.27,0,0,0-11.617-2.083L317.2,205.5a33.2,33.2,0,0,0-23.279-22.562,32.5,32.5,0,0,0-30.457,7.009,34.225,34.225,0,0,0-9.659,15.562l2.314-1.762c-11.711-.059-23.3,5.96-29.375,16.072a33.028,33.028,0,0,0-1.906,29.466,35.235,35.235,0,0,0,12.3,15.769l-1.1-2.71a35.835,35.835,0,0,0,9.047,30.83,30.28,30.28,0,0,0,24.114,9.5,38.336,38.336,0,0,0,17.324-5.546H284.1c8.442,5.156,19.266,7.288,28.814,4.141,8.854-2.918,15.616-9.9,19.278-18.362a34.689,34.689,0,0,0,2.394-20.566l-1.1,2.71a35.938,35.938,0,0,0,14.807-26.018,32.169,32.169,0,0,0-8.24-24.337,34.364,34.364,0,0,0-13.547-8.878,2.422,2.422,0,0,0-2.953,1.676,2.451,2.451,0,0,0,1.677,2.952,27.984,27.984,0,0,1,16.488,15.774,29.009,29.009,0,0,1-.987,22.735,29.613,29.613,0,0,1-9.668,11.952,2.519,2.519,0,0,0-1.1,2.71,30.783,30.783,0,0,1-8.036,26.4,25.621,25.621,0,0,1-20.5,7.86,33.191,33.191,0,0,1-14.9-4.89,2.392,2.392,0,0,0-2.422,0c-7.325,4.473-16.5,6.386-24.817,3.753-7.6-2.406-13.191-8.463-16.415-15.588a29.254,29.254,0,0,1-2.2-17.532,2.519,2.519,0,0,0-1.1-2.71c-7.889-5.5-12.7-15.53-12.547-25.092A27.242,27.242,0,0,1,238.463,214.1a30.6,30.6,0,0,1,17.658-5.55,2.455,2.455,0,0,0,2.315-1.762c2.728-8.905,9.347-16.285,18.359-19.079a29.4,29.4,0,0,1,27.409,5.944,27.353,27.353,0,0,1,8.369,13.126,2.455,2.455,0,0,0,2.315,1.762,31.179,31.179,0,0,1,10.341,1.911,2.422,2.422,0,0,0,2.952-1.676A2.448,2.448,0,0,0,326.505,205.822Z"/><path class="c" d="M286.03,218.178a7.858,7.858,0,0,0-7.492,5.483,8.021,8.021,0,0,0,2.57,8.566,8.321,8.321,0,0,0,9.022.609,7.967,7.967,0,0,0,3.593-8.288,7.783,7.783,0,0,0-7.693-6.37,2.4,2.4,0,1,0,0,4.8c.158,0,.315.015.473.019.542.013-.551-.13-.032-.007.24.057.48.1.716.183a1.3,1.3,0,0,0,.272.1l-.31-.131c.087.039.172.081.256.124.234.122.47.347.71.444-.459-.184-.276-.221-.061-.022.067.062.133.126.2.191s.183.257.275.306c-.315-.169-.258-.381-.086-.1.134.216.259.431.384.652.1.187.008.266-.072-.194a5.562,5.562,0,0,0,.181.527c.063.219.07.482.152.69-.193-.491-.034-.405-.032-.138,0,.121.011.242.012.363a3.654,3.654,0,0,0-.039.741l.049-.353c-.014.093-.031.186-.049.279q-.048.239-.114.471-.046.164-.1.324l-.046.126q-.139.352.087-.206a4.592,4.592,0,0,0-.311.571c-.057.09-.127.174-.181.265-.154.264.414-.46.1-.136a7.049,7.049,0,0,0-.547.531c.312-.406.318-.231.074-.07-.072.048-.145.093-.219.137-.113.067-.23.123-.345.185-.407.224.45-.134.147-.057-.243.062-.475.162-.72.22-.092.021-.185.036-.276.057q-.387.063.209-.023c-.1.011-.2.02-.294.026a6.541,6.541,0,0,1-.754.008,2.32,2.32,0,0,0-.437-.035c.049-.009.6.115.214.022-.248-.06-.5-.111-.738-.192-.1-.035-.212-.092-.318-.116.622.14.25.1.031-.015s-.4-.276-.606-.39c.476.259.318.263.182.129-.093-.091-.191-.175-.282-.269-.074-.076-.139-.171-.218-.241-.228-.2.343.511.095.123-.144-.225-.275-.452-.4-.685-.239-.43.181.547.028.074-.028-.088-.062-.174-.09-.262a4.212,4.212,0,0,0-.195-.83c.026.041.051.615.03.2-.007-.151-.022-.3-.025-.453q0-.186,0-.372,0-.108.012-.216c.026-.262.013-.191-.037.213.1-.251.109-.561.191-.822a2.421,2.421,0,0,0,.141-.392l-.132.319c.038-.083.079-.166.122-.247.123-.234.335-.459.439-.7-.208.478-.214.268-.026.064.093-.1.191-.2.291-.293.213-.2.4-.167-.061.022a2.876,2.876,0,0,0,.344-.236q.18-.113.366-.21c.084-.044.169-.085.255-.125l-.309.131c.2.031.622-.2.842-.253l.148-.029c.26-.043.2-.037-.185.02a2.541,2.541,0,0,0,.629-.033,2.4,2.4,0,1,0,0-4.8Z"/><path class="c" d="M302.831,231.139a7.856,7.856,0,0,0-7.492,5.483,8.019,8.019,0,0,0,2.57,8.565,8.321,8.321,0,0,0,9.022.609,7.969,7.969,0,0,0,3.594-8.287,7.783,7.783,0,0,0-7.694-6.37,2.4,2.4,0,0,0,0,4.8c.158,0,.315.014.473.018.542.013-.55-.13-.032-.007.241.058.48.106.716.183a1.381,1.381,0,0,0,.272.1l-.309-.131q.129.059.255.123c.234.122.47.348.71.445-.458-.185-.276-.222-.061-.023.068.062.133.126.2.192s.183.256.276.305c-.315-.169-.259-.38-.086-.1.133.215.258.43.383.651.105.187.008.267-.072-.194a5.562,5.562,0,0,0,.181.527c.064.219.07.482.152.69-.193-.491-.034-.4-.032-.138,0,.121.012.242.012.364a3.79,3.79,0,0,0-.039.74l.049-.353c-.014.094-.03.187-.049.279q-.047.238-.114.471-.046.163-.1.324l-.046.126q-.14.353.087-.206a4.8,4.8,0,0,0-.311.571c-.057.09-.127.174-.18.266-.154.263.413-.461.1-.137a6.882,6.882,0,0,0-.547.532c.312-.407.318-.232.074-.071-.071.048-.145.094-.219.137-.113.067-.23.123-.345.186-.407.223.45-.135.147-.058-.243.062-.475.163-.72.22-.092.021-.185.036-.276.057-.258.042-.188.035.209-.023-.1.011-.2.02-.294.026a6.526,6.526,0,0,1-.753.008A2.425,2.425,0,0,0,302.1,242c.049-.009.6.115.214.022-.248-.06-.494-.111-.738-.192-.1-.034-.211-.092-.318-.116.622.14.25.1.032-.015s-.4-.276-.607-.389c.476.258.318.262.182.129-.092-.092-.191-.176-.282-.27-.074-.076-.139-.171-.218-.241-.228-.2.343.511.095.123-.144-.225-.275-.452-.4-.685-.239-.43.181.547.028.074-.028-.088-.062-.174-.089-.262a4.274,4.274,0,0,0-.2-.829c.026.041.051.614.031.2-.008-.152-.022-.3-.026-.454,0-.124,0-.248,0-.372q0-.108.012-.216c.026-.261.014-.191-.037.213.1-.251.109-.561.192-.821a2.563,2.563,0,0,0,.14-.393l-.132.319c.038-.083.079-.165.122-.247.123-.233.335-.458.439-.7-.208.478-.214.267-.025.063.093-.1.19-.2.291-.292.212-.2.4-.167-.062.021a2.887,2.887,0,0,0,.345-.236c.119-.075.241-.145.365-.21.084-.044.169-.085.256-.124l-.31.13c.2.031.622-.205.843-.252l.147-.03q.39-.065-.185.02a2.585,2.585,0,0,0,.629-.032,2.4,2.4,0,1,0,0-4.8Z"/><path class="c" d="M297.018,252.1a7.856,7.856,0,0,0-7.492,5.483,8.019,8.019,0,0,0,2.57,8.565,8.321,8.321,0,0,0,9.022.61,7.968,7.968,0,0,0,3.593-8.288,7.782,7.782,0,0,0-7.693-6.37,2.4,2.4,0,0,0,0,4.8c.158,0,.315.014.473.018.542.013-.551-.13-.032-.006.24.057.48.105.716.182a1.358,1.358,0,0,0,.272.1l-.31-.131c.087.039.172.08.256.124.234.121.47.347.71.444-.459-.185-.276-.221-.061-.023.067.062.133.126.2.192s.183.256.275.306c-.315-.17-.258-.381-.086-.1.134.215.259.431.384.652.1.187.008.266-.072-.195a5.467,5.467,0,0,0,.181.527c.063.22.07.482.152.69-.193-.49-.034-.4-.032-.138,0,.121.011.243.012.364a3.64,3.64,0,0,0-.039.74l.049-.352c-.014.093-.031.186-.049.279q-.048.237-.114.471c-.031.109-.065.217-.1.323l-.046.127q-.14.353.087-.207a4.665,4.665,0,0,0-.311.571c-.057.09-.127.175-.181.266-.154.264.414-.46.1-.136a6.87,6.87,0,0,0-.547.531c.312-.407.318-.232.074-.07-.072.047-.145.093-.219.137-.113.066-.23.122-.345.185-.407.224.45-.134.147-.057-.243.061-.475.162-.72.219-.092.022-.185.036-.276.058q-.387.063.209-.023c-.1.011-.2.019-.294.026a7.025,7.025,0,0,1-.754.008,2.24,2.24,0,0,0-.437-.035c.049-.009.6.114.214.021-.248-.06-.5-.11-.738-.191-.1-.035-.212-.093-.318-.117.622.141.25.1.031-.015s-.4-.276-.606-.389c.476.258.318.262.182.129-.093-.091-.191-.176-.282-.269-.074-.077-.139-.172-.218-.242-.228-.2.343.511.095.124-.144-.226-.275-.452-.4-.686-.239-.43.181.548.028.074-.028-.087-.062-.173-.09-.261a4.2,4.2,0,0,0-.195-.83c.026.041.051.614.03.2-.007-.151-.022-.3-.025-.454,0-.124,0-.247,0-.371,0-.073.006-.144.012-.216.026-.262.013-.191-.037.212.1-.251.109-.561.191-.821a2.491,2.491,0,0,0,.141-.392l-.132.319c.038-.084.079-.166.122-.247.123-.234.335-.459.439-.7-.208.478-.214.268-.026.063.093-.1.191-.2.291-.292.213-.2.4-.167-.061.022a2.9,2.9,0,0,0,.345-.237c.119-.075.241-.145.365-.21.084-.043.169-.085.255-.124l-.309.13c.2.031.622-.205.842-.252l.148-.029c.26-.044.2-.037-.185.019a2.587,2.587,0,0,0,.629-.032,2.4,2.4,0,1,0,0-4.8Z"/><path class="c" d="M267.8,230.774a7.859,7.859,0,0,0-7.493,5.483,8.024,8.024,0,0,0,2.57,8.566,8.323,8.323,0,0,0,9.023.609,7.967,7.967,0,0,0,3.593-8.288,7.783,7.783,0,0,0-7.693-6.37,2.4,2.4,0,0,0,0,4.8c.158,0,.315.015.472.018.543.014-.55-.13-.031-.006.24.057.48.1.715.183a1.367,1.367,0,0,0,.273.1l-.31-.131c.086.039.171.08.255.124.235.122.47.347.711.444-.459-.185-.276-.221-.061-.023.067.063.133.127.2.192s.183.256.275.306c-.315-.17-.259-.381-.086-.1.134.216.259.431.383.652.106.187.008.266-.072-.195a5.319,5.319,0,0,0,.182.528c.063.219.07.482.151.69-.192-.491-.033-.405-.032-.139,0,.122.012.243.012.364a3.725,3.725,0,0,0-.038.741l.048-.353q-.021.14-.048.279c-.032.158-.07.316-.114.471-.031.109-.065.217-.1.324l-.046.126q-.139.352.088-.207a4.746,4.746,0,0,0-.312.572c-.056.089-.127.174-.18.265-.154.264.413-.46.1-.136a7.049,7.049,0,0,0-.547.531c.311-.407.317-.231.074-.07-.072.047-.145.093-.219.137-.113.066-.231.122-.345.185-.407.224.449-.134.146-.057-.242.061-.474.162-.72.219-.091.022-.184.037-.276.058q-.386.063.21-.023c-.1.011-.2.019-.295.026a7,7,0,0,1-.753.008,2.252,2.252,0,0,0-.437-.035c.049-.009.6.114.214.021-.248-.059-.5-.11-.738-.191-.1-.035-.212-.093-.318-.117.621.141.25.105.031-.014s-.4-.276-.607-.39c.477.259.319.262.183.129-.093-.091-.192-.175-.282-.269-.074-.076-.14-.171-.219-.242-.227-.2.343.512.1.124-.144-.226-.274-.452-.4-.685-.24-.43.18.547.028.074-.029-.088-.062-.174-.09-.262a4.127,4.127,0,0,0-.2-.83c.027.041.052.614.031.2-.007-.151-.022-.3-.025-.453q0-.186,0-.372,0-.108.012-.216.038-.393-.037.212c.1-.25.109-.561.191-.821a2.627,2.627,0,0,0,.141-.392l-.133.319c.039-.083.08-.166.123-.247.123-.234.335-.459.438-.7-.208.478-.213.268-.025.063.093-.1.19-.2.291-.292.213-.2.4-.167-.061.022a3,3,0,0,0,.344-.236q.179-.113.366-.21c.084-.044.169-.086.255-.125l-.309.131c.2.03.622-.206.842-.253l.147-.029c.261-.043.2-.037-.185.02a2.647,2.647,0,0,0,.63-.033,2.4,2.4,0,0,0,0-4.8Z"/><path class="c" d="M274.683,252.5a7.859,7.859,0,0,0-7.492,5.483,8.021,8.021,0,0,0,2.57,8.566,8.321,8.321,0,0,0,9.022.609,7.967,7.967,0,0,0,3.593-8.288,7.783,7.783,0,0,0-7.693-6.37,2.4,2.4,0,1,0,0,4.8c.158,0,.315.015.473.018.542.014-.551-.129-.032-.006.241.057.48.105.716.183a1.358,1.358,0,0,0,.272.1l-.309-.131c.086.039.171.08.255.124.234.122.47.347.71.444-.458-.184-.276-.221-.061-.022.067.062.133.126.2.191s.183.257.276.306c-.316-.169-.259-.381-.086-.1.133.216.258.431.383.652.105.187.008.266-.072-.195a5.58,5.58,0,0,0,.181.528c.063.219.07.482.152.69-.193-.491-.034-.4-.032-.139,0,.122.012.243.012.364a3.727,3.727,0,0,0-.039.741l.049-.353c-.014.093-.031.186-.049.279-.031.159-.07.316-.114.471q-.046.163-.1.324l-.046.126q-.139.353.087-.207a4.741,4.741,0,0,0-.311.572c-.057.09-.127.174-.181.265-.153.264.414-.46.1-.136a7.049,7.049,0,0,0-.547.531c.312-.406.318-.231.074-.07-.071.048-.145.093-.219.137-.113.067-.23.122-.345.185-.407.224.45-.134.147-.057-.243.061-.475.162-.72.22-.092.021-.185.036-.276.057q-.387.063.209-.023c-.1.011-.2.02-.294.026a6.541,6.541,0,0,1-.754.008,2.32,2.32,0,0,0-.437-.035c.049-.009.6.115.214.021-.248-.059-.5-.11-.738-.191-.1-.035-.211-.092-.318-.117.622.141.25.1.032-.014s-.4-.276-.607-.39c.476.259.318.263.182.129-.092-.091-.191-.175-.282-.269-.074-.076-.139-.171-.218-.241-.228-.2.343.511.1.123-.144-.225-.275-.452-.405-.685-.239-.43.181.547.028.074-.028-.088-.062-.174-.089-.262a4.267,4.267,0,0,0-.2-.83c.026.041.051.614.031.2-.008-.151-.022-.3-.026-.453q0-.186,0-.372,0-.108.012-.216c.026-.262.013-.191-.037.212.1-.25.109-.56.191-.821a2.421,2.421,0,0,0,.141-.392l-.132.319c.038-.083.079-.166.122-.247.123-.234.335-.459.439-.7-.208.478-.214.268-.026.064.093-.1.191-.2.291-.293.213-.2.4-.167-.061.022a3.01,3.01,0,0,0,.345-.236c.119-.075.241-.145.365-.21.084-.044.169-.085.256-.125l-.31.131c.2.03.622-.2.843-.253l.147-.029c.26-.043.2-.037-.185.02a2.539,2.539,0,0,0,.629-.033,2.4,2.4,0,1,0,0-4.8Z"/><path class="c" d="M283.452,231.466v11.7a2.4,2.4,0,0,0,4.8,0v-11.7a2.4,2.4,0,0,0-4.8,0Z"/><path class="c" d="M295.913,254.255q-4-6.151-7.989-12.3a2.4,2.4,0,1,0-4.144,2.422q4,6.151,7.989,12.3a2.4,2.4,0,0,0,4.144-2.422Z"/><path class="c" d="M283.78,241.951q-4.08,6.3-8.174,12.586a2.42,2.42,0,0,0,.861,3.284,2.454,2.454,0,0,0,3.284-.861q4.079-6.3,8.173-12.587a2.42,2.42,0,0,0-.861-3.284,2.453,2.453,0,0,0-3.283.862Z"/><path class="c" d="M286.49,240.848c-4.269-1-8.546-1.967-12.815-2.968a2.4,2.4,0,0,0-1.276,4.629c4.269,1,8.546,1.968,12.815,2.967a2.4,2.4,0,1,0,1.276-4.628Z"/><path class="c" d="M296.942,238.13c-3.908.912-7.82,1.806-11.728,2.718a2.42,2.42,0,0,0-1.676,2.952,2.451,2.451,0,0,0,2.952,1.676c3.908-.911,7.82-1.806,11.728-2.717a2.421,2.421,0,0,0,1.676-2.953,2.452,2.452,0,0,0-2.952-1.676Z"/><path class="a" d="M62.986,202.28c-1.752-2.3-3.4-4.639-5.2-6.844a4.353,4.353,0,0,0-7.105.492,26.54,26.54,0,0,0-3.224,17.494,25.51,25.51,0,0,0,5.614,13.108c1.667,2.179,6.8,6.927,9.915,6.927s8.248-4.748,9.915-6.927a25.51,25.51,0,0,0,5.614-13.108,26.546,26.546,0,0,0-3.224-17.494,4.353,4.353,0,0,0-7.1-.492C66.382,197.641,64.738,199.978,62.986,202.28Z"/><path class="a" d="M20.044,233.779c-2.763.858-5.521,1.6-8.21,2.545a4.354,4.354,0,0,0-1.968,6.845A26.542,26.542,0,0,0,25.2,252.182a25.511,25.511,0,0,0,14.236-.792c2.618-.821,8.837-4.022,9.9-6.948s-1.642-9.375-3.119-11.687A25.516,25.516,0,0,0,35.825,223a26.546,26.546,0,0,0-17.542-2.954,4.353,4.353,0,0,0-2.892,6.508C16.846,229,18.479,231.345,20.044,233.779Z"/><path class="a" d="M36.589,283.952c.115,2.891.122,5.749.334,8.59a4.353,4.353,0,0,0,6.1,3.671A26.544,26.544,0,0,0,55.7,283.732a25.511,25.511,0,0,0,2.919-13.956c-.115-2.741-1.6-9.577-4.148-11.362s-9.481-.842-12.1-.013a25.513,25.513,0,0,0-12.117,7.517,26.551,26.551,0,0,0-7.393,16.18,4.353,4.353,0,0,0,5.538,4.478C31.146,285.8,33.834,284.834,36.589,283.952Z"/><path class="a" d="M105.742,233.786c2.763.859,5.521,1.6,8.21,2.546a4.353,4.353,0,0,1,1.968,6.845,26.552,26.552,0,0,1-15.337,9.013,25.509,25.509,0,0,1-14.236-.793c-2.618-.821-8.837-4.022-9.9-6.948s1.642-9.375,3.119-11.686A25.511,25.511,0,0,1,89.961,223a26.546,26.546,0,0,1,17.542-2.953,4.353,4.353,0,0,1,2.892,6.508C108.94,229.008,107.307,231.353,105.742,233.786Z"/><path class="a" d="M89.194,283.952c-.114,2.891-.121,5.748-.334,8.59a4.353,4.353,0,0,1-6.1,3.671,26.546,26.546,0,0,1-12.676-12.481,25.52,25.52,0,0,1-2.919-13.956c.116-2.741,1.6-9.577,4.149-11.362s9.48-.842,12.1-.013a25.513,25.513,0,0,1,12.117,7.517,26.54,26.54,0,0,1,7.393,16.18,4.352,4.352,0,0,1-5.537,4.478C94.637,285.8,91.95,284.834,89.194,283.952Z"/><path class="c" d="M65.058,201.069c-1.805-2.382-3.517-4.845-5.425-7.146a6.781,6.781,0,0,0-5.832-2.456c-5.04.5-7.088,6.194-8.16,10.45a30.267,30.267,0,0,0,6.3,27,29.347,29.347,0,0,0,4.335,3.97,14.161,14.161,0,0,0,5.255,2.792c4.037.915,7.947-2.346,10.686-4.9a29.634,29.634,0,0,0,8.791-25.046,28.784,28.784,0,0,0-2.2-8.147c-1.081-2.492-2.413-4.939-5.158-5.828a6.893,6.893,0,0,0-6.732,1.529,26.466,26.466,0,0,0-2.856,3.567c-1.058,1.4-2.092,2.822-3.152,4.222a2.413,2.413,0,0,0,.861,3.283,2.457,2.457,0,0,0,3.283-.861c1.416-1.867,2.772-3.783,4.229-5.618.911-1.148,1.716-1.977,2.952-1.536,1.127.4,1.788,2.193,2.3,3.379a23.261,23.261,0,0,1,1.605,5.642,25.346,25.346,0,0,1-5.678,20.35c-1.813,2.023-4.419,4.521-6.934,5.245a3.894,3.894,0,0,1-.493.12c.123-.019.376,0-.058-.016-.344-.01.075.09-.426-.07a7.559,7.559,0,0,1-1.672-.75,21.255,21.255,0,0,1-3.854-2.969A24.867,24.867,0,0,1,49.576,208.2a23.765,23.765,0,0,1,1.132-6.54,20.8,20.8,0,0,1,1.095-2.748,7.3,7.3,0,0,1,1.336-2.253,1.977,1.977,0,0,1,2.845.352,81.062,81.062,0,0,1,4.93,6.478,2.476,2.476,0,0,0,3.283.861A2.415,2.415,0,0,0,65.058,201.069Z"/><path class="c" d="M19.406,231.464c-2.731.843-5.534,1.54-8.21,2.546a7,7,0,0,0-4.442,4.6c-1.373,4.73,3.025,8.41,6.409,10.9a30.145,30.145,0,0,0,27.312,4.058c3.491-1.231,7.437-3.264,9.816-6.169,2.7-3.293,1.6-7.624.192-11.265a29.749,29.749,0,0,0-19.747-17.788,27.776,27.776,0,0,0-8.949-1.1c-2.687.122-5.672.353-7.6,2.455a6.833,6.833,0,0,0-1.277,7.191c1.2,2.879,3.381,5.489,5.066,8.1,1.67,2.587,5.827.183,4.145-2.423-1.3-2.008-2.648-3.981-3.912-6.01-.757-1.218-1.522-2.286-.618-3.472.818-1.074,2.936-.984,4.2-1.041a22.961,22.961,0,0,1,6.358.586,25.106,25.106,0,0,1,16.948,13.055,24.621,24.621,0,0,1,1.618,4.295,15.524,15.524,0,0,1,.416,1.876c.043.333.038.667.054,1a1.081,1.081,0,0,1-.085.731c-.006.019-.139.356-.042.138.113-.253-.121.194-.156.239a4.4,4.4,0,0,1-.363.462,10.787,10.787,0,0,1-1.517,1.356A25.812,25.812,0,0,1,40.73,248.3a24.069,24.069,0,0,1-9.218,2.143,26.387,26.387,0,0,1-11.64-2.522,23.325,23.325,0,0,1-4.948-3.072c-1.169-.969-3.184-2.472-3.579-3.932a2.055,2.055,0,0,1,1.575-2.43c2.531-.943,5.183-1.594,7.762-2.39C23.624,235.184,22.369,230.55,19.406,231.464Z"/><path class="c" d="M34.189,283.952c.11,2.911.055,5.854.353,8.754a6.9,6.9,0,0,0,3.545,5.481c4.33,2.341,9.134-1.174,12.384-3.9a30,30,0,0,0,10.484-25.355c-.372-3.6-1.253-7.767-3.428-10.742-2.441-3.338-6.776-3.436-10.563-3.051a29.774,29.774,0,0,0-22.591,14.625,27.918,27.918,0,0,0-3.167,7.639c-.639,2.611-1.306,5.715.052,8.2a6.842,6.842,0,0,0,6.454,3.506,20.882,20.882,0,0,0,4.512-1.2c1.67-.542,3.331-1.112,5-1.65,2.929-.943,1.677-5.579-1.276-4.629-2.275.733-4.531,1.528-6.818,2.223-1.289.392-2.832.935-3.65-.535-.679-1.222.041-3.375.352-4.646a22.821,22.821,0,0,1,2.085-5.443,25.112,25.112,0,0,1,17.085-13,24.28,24.28,0,0,1,4.435-.434,17.384,17.384,0,0,1,2.013.09c.323.047.635.134.953.207.471.109.164.022.57.214a2.013,2.013,0,0,1,.707.735,10.751,10.751,0,0,1,.935,1.811,25.056,25.056,0,0,1,1.294,4.587c.065.329.121.658.176.989.007.046.084.6.05.332-.028-.221.017.168.017.169.077.776.1,1.555.1,2.334a24.1,24.1,0,0,1-.473,5.327,26.34,26.34,0,0,1-5.271,10.8,23.7,23.7,0,0,1-4.218,4.114,24.023,24.023,0,0,1-2.553,1.646,7.166,7.166,0,0,1-2.268,1.042,2.035,2.035,0,0,1-2.171-1.894,83.047,83.047,0,0,1-.317-8.353C38.873,280.873,34.073,280.858,34.189,283.952Z"/><path class="c" d="M105.1,236.1c2.284.706,4.588,1.348,6.86,2.091,1.273.415,2.34.831,2.513,1.921.2,1.266-1.031,2.316-1.994,3.27a22.4,22.4,0,0,1-4.108,3.219,25.6,25.6,0,0,1-21.788,2.349,19.442,19.442,0,0,1-7.336-4.514,4.371,4.371,0,0,1-.363-.462c-.278-.361-.111-.1-.2-.378a3.574,3.574,0,0,1-.045-1.585,19.151,19.151,0,0,1,1.227-4.434,25.508,25.508,0,0,1,21.5-15.5,25.2,25.2,0,0,1,3.717.053,5.978,5.978,0,0,1,2.678.567c1.156.762.951,1.988.308,3.063-1.39,2.323-2.941,4.546-4.409,6.82-1.68,2.6,2.473,5.012,4.145,2.423,1.546-2.395,3.291-4.721,4.653-7.228a6.982,6.982,0,0,0,.174-6.579,6.9,6.9,0,0,0-5.378-3.6,28.465,28.465,0,0,0-8.274-.067c-9.335,1.307-18.254,7.186-22.442,15.745-1.63,3.332-3.521,7.836-2.487,11.6,1.016,3.7,5.507,6.136,8.71,7.641a29.983,29.983,0,0,0,27.066-1.211,27.567,27.567,0,0,0,6.04-4.527c1.779-1.763,3.464-3.721,3.415-6.375a6.872,6.872,0,0,0-3.69-5.959c-2.824-1.428-6.208-2.04-9.222-2.97C103.422,230.559,102.157,235.191,105.1,236.1Z"/><path class="c" d="M86.794,283.952c-.09,2.389-.114,4.781-.243,7.168-.072,1.328-.17,2.618-1.541,3.009-1.134.324-2.668-.768-3.745-1.425a22.446,22.446,0,0,1-4.153-3.267,25.557,25.557,0,0,1-7.495-20.39,3.021,3.021,0,0,1,.057-.479c.051-.328.108-.654.169-.98q.234-1.228.568-2.435a16.408,16.408,0,0,1,1.617-3.992,2.927,2.927,0,0,1,.393-.531c.284-.38.006-.1.287-.264a4.4,4.4,0,0,1,1.622-.477,20.224,20.224,0,0,1,4.49.051,24.493,24.493,0,0,1,17.446,10.7,24.246,24.246,0,0,1,3.022,5.806c.633,1.824,1.449,4.222,1.236,6.184a2.019,2.019,0,0,1-2.735,1.569c-2.686-.732-5.308-1.706-7.957-2.559-2.947-.949-4.209,3.684-1.276,4.629,2.762.889,5.524,2.034,8.359,2.665a6.927,6.927,0,0,0,6.578-1.914c1.942-2.023,1.939-4.529,1.564-7.125a27.222,27.222,0,0,0-2.015-6.939c-3.731-8.626-11.8-15.636-21.126-17.376-3.586-.67-8.318-1.3-11.631.643-3.194,1.876-4.385,6.579-5.042,9.946a29.945,29.945,0,0,0,7.718,25.878,27.6,27.6,0,0,0,5.882,4.8c2.212,1.35,4.64,2.617,7.3,1.95a6.864,6.864,0,0,0,4.937-4.971,24.4,24.4,0,0,0,.355-4.608c.063-1.756.095-3.512.161-5.267C91.711,280.863,86.91,280.868,86.794,283.952Z"/><path class="b" d="M267.89,6.655a97.409,97.409,0,0,1,89.727,29.869C337.111,54.7,314.269,74.871,296.154,92.073l-4.466,4.221c1.068,1.575,2.459,3.574,3.439,5.031,1.088,1.618-.155,3.833-1.644,3.833H278.2c-1.487,0-2.463-2.411-1.378-4.031.782-1.169,1.657-2.514,2.5-3.807l-5.118-4.3c-18.039-17.128-40.762-37.2-61.2-55.312A96.92,96.92,0,0,1,267.89,6.655Z"/><path class="d" d="M294.194,29.662a6.567,6.567,0,0,0-2.261-.411,6.32,6.32,0,0,0-11.96-.429c-.052.144-.1.288-.142.431a6.542,6.542,0,0,0-2.339.409,6.151,6.151,0,0,0-3.752,8.018,6.681,6.681,0,0,0,2.432,3.277,6.356,6.356,0,0,0,.275,3.431,5.992,5.992,0,0,0,8.081,3.812,7.122,7.122,0,0,0,1.315-.638,7.144,7.144,0,0,0,1.314.638,5.993,5.993,0,0,0,8.082-3.812,6.346,6.346,0,0,0,.274-3.431,6.676,6.676,0,0,0,2.433-3.277A6.152,6.152,0,0,0,294.194,29.662Z"/><path class="c" d="M296.683,69.682c-2.858,4.58-5.64,9.2-8.408,13.84a2.4,2.4,0,0,0,4.144,2.422c2.768-4.634,5.551-9.259,8.409-13.839a2.424,2.424,0,0,0-.861-3.284,2.451,2.451,0,0,0-3.284.861Z"/><path class="c" d="M270.858,72.105c2.858,4.58,5.64,9.2,8.409,13.839a2.4,2.4,0,1,0,4.144-2.422c-2.768-4.635-5.551-9.26-8.408-13.84a2.4,2.4,0,0,0-4.145,2.423Z"/><path class="c" d="M252.026,75.853c14.816-11.819,35.42-14.716,53.106-8.2a52.317,52.317,0,0,1,13.921,7.706,2.48,2.48,0,0,0,3.394,0,2.415,2.415,0,0,0,0-3.394,59.494,59.494,0,0,0-73.816.5,2.415,2.415,0,0,0,0,3.394,2.459,2.459,0,0,0,3.4,0Z"/><path class="c" d="M297.851,93.77c15.545-14.754,31.556-29.014,47.582-43.242q6.936-6.157,13.881-12.307a2.437,2.437,0,0,0,0-3.394,99.756,99.756,0,0,0-148,1.181,2.434,2.434,0,0,0,0,3.394c16.314,14.457,32.661,28.883,48.7,43.645q6.291,5.789,12.5,11.667c2.24,2.126,5.64-1.262,3.394-3.394C260.4,76.6,244.426,62.375,228.439,48.182q-6.862-6.093-13.733-12.174V39.4A94.985,94.985,0,0,1,355.92,38.221V34.827C339.569,49.32,323.183,63.778,307.1,78.573q-6.365,5.856-12.645,11.8c-2.246,2.131,1.153,5.521,3.394,3.394Z"/><path class="c" d="M294.832,27.348a10.049,10.049,0,0,0-2.9-.5l2.314,1.762a8.92,8.92,0,0,0-8.464-6.3,8.746,8.746,0,0,0-8.266,6.3l2.314-1.762a8.917,8.917,0,0,0-8.579,6.329,9.281,9.281,0,0,0,3.709,9.847l-1.1-2.71a9.318,9.318,0,0,0,3.923,9.491,8.939,8.939,0,0,0,9.273-.175h-2.422a8.939,8.939,0,0,0,9.273.175,9.319,9.319,0,0,0,3.923-9.491l-1.1,2.71a9.31,9.31,0,0,0,3.954-8.458,8.758,8.758,0,0,0-5.847-7.223,2.416,2.416,0,0,0-2.952,1.676,2.456,2.456,0,0,0,1.676,2.952,4.019,4.019,0,0,1,.746,6.908,2.55,2.55,0,0,0-1.1,2.711,4.357,4.357,0,0,1-1.968,4.225,4.172,4.172,0,0,1-4.177-.33,2.42,2.42,0,0,0-2.422,0,4.174,4.174,0,0,1-4.178.33,4.359,4.359,0,0,1-1.967-4.225,2.554,2.554,0,0,0-1.1-2.711,4.01,4.01,0,0,1,2.447-7.231,2.473,2.473,0,0,0,2.315-1.762,3.928,3.928,0,0,1,7.473,0,2.472,2.472,0,0,0,2.314,1.762,5.453,5.453,0,0,1,1.623.325C296.493,32.957,297.752,28.323,294.832,27.348Z"/><path class="c" d="M289.2,96.882c1.075,1.6,2.178,3.181,3.263,4.774.248.363.512.722.731,1.1,0-.007-.115-.254-.057-.272l.007.237c.054-.247.047-.229-.019.055.038-.09.207-.362-.027.058-.247.442-.082.027.052-.011.35-.1-.552.11.1-.036a1.231,1.231,0,0,0,.229-.033c-.139-.132-1.041,0-1.224,0h-12.48a5.676,5.676,0,0,0-1.5,0c-.117.039-.268-.189.208.038a1.774,1.774,0,0,1,.424.263q-.234-.247-.071-.047t-.039-.089l.069.189a2.429,2.429,0,0,1-.093-.312c-.038-.171-.039-.14,0,.092a2.966,2.966,0,0,1,0-.452c-.04.3-.064.071.052-.037-.27.251.165-.2.233-.307q1.937-2.977,3.905-5.936a2.4,2.4,0,0,0-4.145-2.422c-1.315,1.969-2.609,3.953-3.9,5.935a5.385,5.385,0,0,0,.46,6.646c1.545,1.588,3.85,1.239,5.859,1.239h11.119a9.278,9.278,0,0,0,1.971-.1c2.979-.647,4.386-4.259,3.118-6.892a24.285,24.285,0,0,0-2-3.037c-.7-1.022-1.4-2.042-2.1-3.071a2.458,2.458,0,0,0-3.283-.861,2.422,2.422,0,0,0-.861,3.284Z"/><path class="e" d="M119.008,21.876c-3.058-.292-5.946-.542-8.672-.647a34.852,34.852,0,0,1,2.564,7.722,66.77,66.77,0,0,1,.866,6.871l1.662-1.73a51.452,51.452,0,0,0,7.753-10.652c.166-.308.323-.708.107-.983-.168-.213-.478-.214-.748-.24Q120.737,22.043,119.008,21.876Z"/><path class="f" d="M112.9,28.951a102.043,102.043,0,0,1,1.2,12.028,30.229,30.229,0,0,1-.4,4.734H111.53a12.241,12.241,0,0,0-6.366,2.045,18.175,18.175,0,0,0-3.989,3.375c-14.6,16.994-18,28.417-33.011,35.226a44.489,44.489,0,0,1-4.724,1.793,60.294,60.294,0,0,1-15.534,2.771A53.125,53.125,0,0,1,22.1,82.612C11.924,76.125,4.218,65.326,2.475,53.037a7.5,7.5,0,0,1,.292-3.486c.907-2.468,3.264-2.367,5.158-2.186C19.268,48.443,30.006,39.82,39.082,29.7c3.717-4.14,7.293-8.4,10.96-12.571C53.4,13.317,56.952,9.57,61.294,6.88c5.923-3.667,12.511-4.6,19.351-4.473A34.117,34.117,0,0,1,96.42,6.5a29.346,29.346,0,0,1,7.464,5.853,40.31,40.31,0,0,1,5.954,7.867A34.683,34.683,0,0,1,112.9,28.951Z"/><path class="b" d="M63.44,88.152a44.489,44.489,0,0,0,4.724-1.793c15.01-6.809,18.414-18.232,33.011-35.226a18.175,18.175,0,0,1,3.989-3.375,12.241,12.241,0,0,1,6.366-2.045H113.7c-1.38,8.542-6.417,20.006-17.125,30.442C85.8,86.652,65.313,91.9,50.042,90.983c-.715,0-1.43-.02-2.136-.06A60.294,60.294,0,0,0,63.44,88.152Z"/><path class="c" d="M45.761,93.379c11.7-.108,23.892-3.271,33.012-10.862,7.463-6.212,12.513-14.938,18.339-22.579a83.837,83.837,0,0,1,6.361-7.763c2.113-2.168,4.959-3.985,8.061-4.066,3.083-.081,3.095-4.882,0-4.8a15.511,15.511,0,0,0-8.665,3.106,33.375,33.375,0,0,0-6.133,6.3c-3.589,4.415-6.912,9.027-10.251,13.633A83.127,83.127,0,0,1,78.1,76.642,37.606,37.606,0,0,1,67.12,84.21a53.168,53.168,0,0,1-21.359,4.369c-3.087.029-3.1,4.829,0,4.8Z"/><path class="c" d="M50.045,93.379a74.6,74.6,0,0,0,36.382-7.417c11.714-5.732,20.9-16.4,26.084-28.275a42.708,42.708,0,0,0,3.993-16.7c.014-3.089-4.786-3.093-4.8,0a36.273,36.273,0,0,1-2.852,13.1,56.3,56.3,0,0,1-9.61,15.706A46.092,46.092,0,0,1,85.614,81a66.106,66.106,0,0,1-16.555,5.918,69.195,69.195,0,0,1-19.014,1.664c-3.086-.176-3.076,4.625,0,4.8Z"/><path class="c" d="M111.915,19C108.47,13.387,104.007,8.019,98.2,4.733A39.117,39.117,0,0,0,76.744.062,34.491,34.491,0,0,0,56.737,7.181c-5.911,4.623-10.571,10.766-15.461,16.4C36.547,29.03,31.711,34.549,25.85,38.82c-4.893,3.565-10.609,6.467-16.813,6.22-2.714-.108-5.546-.458-7.494,1.905C-.874,49.877.068,54.109.9,57.466A44.478,44.478,0,0,0,9.457,74.458c9.582,12.016,25.355,18.849,40.588,18.921,3.089.015,3.093-4.785,0-4.8-12.517-.059-25.368-5.114-34.171-14.1A40.238,40.238,0,0,1,6.751,60.223C5.8,57.619,4.7,54.5,4.8,51.7c.035-1.049.257-1.777.956-1.951a15.4,15.4,0,0,1,3.286.1c12.856.512,23.745-9.548,31.744-18.445,4.878-5.427,9.4-11.2,14.5-16.426,4.668-4.784,9.954-8.3,16.6-9.56a36.243,36.243,0,0,1,21.14,2.085c6.423,2.87,11.12,8.023,14.744,13.932,1.612,2.628,5.766.22,4.145-2.423Z"/><path class="c" d="M97.342,24.4a2.961,2.961,0,0,0-2.735,3.262,2.913,2.913,0,0,0,3.284,2.772,2.883,2.883,0,0,0,2.731-3.319A2.96,2.96,0,0,0,97.342,24.4Z"/><path class="c" d="M49.676,40.061c2.355-3.147,7.345-1.268,9.707.777A13.425,13.425,0,0,1,63.556,52.36c-.539,4.632-3.078,8.583-6.2,11.914a23.757,23.757,0,0,1-10.771,6.962,27.513,27.513,0,0,1-16.457-.62c-2.931-1-4.19,3.64-1.276,4.629a32.139,32.139,0,0,0,18.362.792,28.557,28.557,0,0,0,13.806-8.661c3.991-4.357,6.947-9.5,7.378-15.5a17.849,17.849,0,0,0-6.245-14.95c-4.984-3.944-12.448-4.867-16.62.707a2.417,2.417,0,0,0,.861,3.284,2.458,2.458,0,0,0,3.284-.861Z"/><path class="c" d="M110.893,23.653c2.072.1,4.139.259,6.2.445,1.1.1,2.2.205,3.3.311l1.636.159c.964.093.88.327-.17-1.016q-1.169-.543-.753-1.323-.106.2-.215.394a49.362,49.362,0,0,1-3.388,5.276q-.208.285-.421.567c-.034.045-.44.572-.2.261q-.5.645-1.028,1.274-1.026,1.231-2.128,2.394a2.4,2.4,0,0,0,3.394,3.394,55.982,55.982,0,0,0,4.939-6.041q1.017-1.428,1.937-2.925c.7-1.145,1.723-2.506,1.776-3.887a2.932,2.932,0,0,0-1.394-2.656,5.39,5.39,0,0,0-2.352-.512c-1.243-.12-2.485-.242-3.728-.359-2.466-.231-4.935-.442-7.41-.556a2.416,2.416,0,0,0-2.4,2.4,2.453,2.453,0,0,0,2.4,2.4Z"/><path class="c" d="M97.342,22a5.81,5.81,0,0,0-1.619.332,5.945,5.945,0,0,0-1.822,1.1,5.15,5.15,0,0,0-1.551,2.65,5.644,5.644,0,0,0,.176,3.207,6.082,6.082,0,0,0,1.028,1.774,5,5,0,0,0,1.119.967,5.3,5.3,0,0,0,2.97.818,5.652,5.652,0,0,0,3.022-.885,5.445,5.445,0,0,0,2.1-2.748,5.561,5.561,0,0,0,.264-1.528,5.8,5.8,0,0,0-.166-1.646A5.379,5.379,0,0,0,97.342,22a2.562,2.562,0,0,0-1.7.7,2.4,2.4,0,0,0,0,3.394,2.366,2.366,0,0,0,1.7.7,3.642,3.642,0,0,1,.767.019l-.638-.085a3.3,3.3,0,0,1,.695.189l-.573-.242a3.19,3.19,0,0,1,.668.384l-.486-.375a3.148,3.148,0,0,1,.538.538l-.376-.486a3.282,3.282,0,0,1,.385.664l-.242-.574a3.468,3.468,0,0,1,.209.76l-.086-.638a3.911,3.911,0,0,1,.006.967l.086-.638a3.356,3.356,0,0,1-.21.792l.242-.573a2.993,2.993,0,0,1-.356.615l.375-.485a2.921,2.921,0,0,1-.5.5l.486-.375a3.2,3.2,0,0,1-.638.364l.573-.242a3.675,3.675,0,0,1-.844.223l.638-.085a3.794,3.794,0,0,1-.97,0l.638.085A3.3,3.3,0,0,1,97,27.9l.573.242a3.163,3.163,0,0,1-.627-.364l.486.375a3.031,3.031,0,0,1-.51-.515l.375.486a3.328,3.328,0,0,1-.373-.65l.242.573a3.777,3.777,0,0,1-.229-.855l.086.638a3.526,3.526,0,0,1,0-.883l-.085.638a3.31,3.31,0,0,1,.2-.743l-.242.574a3.2,3.2,0,0,1,.38-.659l-.375.485a3.118,3.118,0,0,1,.542-.541l-.486.375a3.3,3.3,0,0,1,.613-.359L97,26.961a3.462,3.462,0,0,1,.806-.226l-.638.086c.058-.009.117-.016.175-.021a2.594,2.594,0,0,0,1.7-.7,2.4,2.4,0,0,0,0-3.394A2.328,2.328,0,0,0,97.342,22Z"/><path class="c" d="M64.368,87.059c-.669,3.19-1.482,6.356-2.379,9.49a4.155,4.155,0,0,0,.1,3.324,4.063,4.063,0,0,0,2.554,1.966,14.346,14.346,0,0,0,2.828.2c.78.04,1.559.085,2.339.1a2.421,2.421,0,0,0,2.4-2.4,2.447,2.447,0,0,0-2.4-2.4c-1.342-.032-2.689-.189-4.032-.177-.507.005.451.17-.016,0l.279.117q-.264-.167-.012.01c.076.1.407.551.234.22,0,0,.348,1.052.154.989,0,0,.5-1.772.552-1.945.75-2.721,1.445-5.462,2.024-8.225a2.4,2.4,0,1,0-4.628-1.276Z"/></svg>