<?xml version="1.0" encoding="iso-8859-1"?>

<!DOCTYPE svg PUBLIC "-//W3C//DTD SVG 1.1//EN" "http://www.w3.org/Graphics/SVG/1.1/DTD/svg11.dtd">
<!-- Uploaded to: SVG Repo, www.svgrepo.com, Generator: SVG Repo Mixer Tools -->
<svg height="800px" width="800px" version="1.1" id="_x36_" xmlns="http://www.w3.org/2000/svg" xmlns:xlink="http://www.w3.org/1999/xlink" 
	 viewBox="0 0 512 512"  xml:space="preserve">
<g>
	<g>
		<g>
			<polygon style="fill:#FFFFFF;" points="93.497,158.189 170.997,80.703 194.243,103.948 116.742,181.44 			"/>
			<polygon style="fill:#F5F3EF;" points="88.021,207.509 153.776,141.751 177.022,165.013 111.272,230.766 			"/>
			<polygon style="fill:#FFFFFF;" points="88.021,252.576 153.776,186.807 177.022,210.058 111.272,275.822 			"/>
		</g>
		<g>
			<polygon style="fill:#FFFFFF;" points="209.738,197.753 287.236,120.254 310.481,143.5 232.994,220.997 			"/>
			<polygon style="fill:#F5F3EF;" points="204.256,247.066 270.014,181.309 293.26,204.559 227.507,270.306 			"/>
			<polygon style="fill:#FFFFFF;" points="204.256,292.123 270.014,226.365 293.26,249.622 227.507,315.373 			"/>
		</g>
		<g>
			<polygon style="fill:#FFFFFF;" points="325.981,158.189 403.462,80.703 426.725,103.948 349.227,181.44 			"/>
			<polygon style="fill:#F5F3EF;" points="320.5,207.509 386.247,141.751 409.503,165.013 343.745,230.766 			"/>
			<polygon style="fill:#FFFFFF;" points="320.5,252.576 386.247,186.807 409.503,210.058 343.745,275.822 			"/>
		</g>
		<path style="fill:#EDCDA7;" d="M512,0c-0.059,2.985-0.351,6.028-0.761,9.013v0.059c-0.059,0.234-0.059,0.468-0.117,0.702
			c-0.176,1.112-0.351,2.165-0.527,3.278c-0.41,2.107-0.936,4.273-1.463,6.438c-0.293,1.053-0.644,2.107-0.937,3.16
			c-0.351,1.112-0.702,2.166-1.053,3.219c-0.351,1.054-0.761,2.107-1.171,3.219c-0.761,2.107-1.639,4.214-2.692,6.321
			c-1.112,2.517-2.341,5.033-3.746,7.492c-0.819,1.522-1.697,2.985-2.634,4.507c-0.937,1.463-1.873,2.985-2.868,4.448
			c-1.697,2.517-3.453,5.033-5.443,7.433c0,0.058,0,0.058-0.059,0.117c-0.176,0.234-0.351,0.41-0.468,0.585
			c-0.117,0.234-0.293,0.41-0.468,0.585v0.059c-1.053,1.346-2.165,2.692-3.278,3.98c-2.224,2.634-4.565,5.209-7.023,7.784
			c-6.204,6.38-13.11,12.583-20.66,18.495c-1.756,1.346-3.512,2.692-5.326,3.98c-0.468,0.351-0.936,0.644-1.346,0.937
			c-1.814,1.346-3.687,2.634-5.619,3.921c-0.41,0.293-0.819,0.585-1.229,0.878c-0.819,0.527-1.697,1.053-2.517,1.639
			c-0.702,0.468-1.405,0.936-2.107,1.405c-1.053,0.644-2.048,1.288-3.102,1.931c-0.293,0.176-0.644,0.351-0.995,0.585
			c-0.059,0.059-0.117,0.059-0.176,0.117c-0.117,0.059-0.234,0.117-0.351,0.234c-0.176,0.058-0.293,0.176-0.41,0.176
			c-3.336,1.99-6.731,3.921-10.184,5.853c-3.453,1.873-7.023,3.746-10.652,5.502l-0.059,0.059
			c-9.891,4.916-20.368,9.364-31.312,13.286c-7.257,2.634-14.69,5.033-22.358,7.257c-5.853,1.697-11.881,3.219-17.968,4.624
			c-4.272,0.936-8.545,1.873-12.876,2.692c-2.4,0.527-4.799,0.936-7.257,1.346c-1.171,0.176-2.341,0.41-3.512,0.585
			c-2.224,0.351-4.448,0.702-6.672,0.995c-1.931,0.293-3.921,0.585-5.911,0.819c-0.176,0-0.293,0.059-0.468,0.059
			c-1.931,0.293-3.921,0.527-5.911,0.702c-2.575,0.293-5.209,0.527-7.843,0.761c-2.575,0.293-5.209,0.468-7.843,0.644
			c-3.921,0.293-7.901,0.468-11.94,0.644c-4.858,0.175-9.774,0.293-14.691,0.293h-1.288c-3.921,0-7.901-0.117-11.764-0.234
			c-3.863-0.176-7.726-0.351-11.589-0.644c-1.873-0.176-3.804-0.176-5.677-0.351c-9.423-0.702-18.729-1.756-27.801-3.219
			c-1.346-0.176-2.575-0.351-3.863-0.585c-1.053-0.176-2.049-0.351-3.044-0.527c-1.112-0.176-2.283-0.351-3.395-0.585
			c-2.868-0.527-5.794-1.053-8.662-1.697c-6.204-1.288-12.291-2.692-18.319-4.273c-0.819-0.234-1.639-0.41-2.458-0.644
			c-12.174-3.278-23.879-7.14-34.999-11.53c-22.123-8.604-42.023-19.197-58.996-31.195C24.991,69.882,0.936,35.058,0,0
			c9.54,3.98,19.958,7.784,31.137,11.237c6.145,1.99,12.583,3.804,19.197,5.619c3.453,0.878,7.023,1.756,10.593,2.634
			c3.278,0.878,6.614,1.639,10.008,2.4c0.176,0,0.41,0.059,0.585,0.117c3.16,0.702,6.38,1.405,9.599,2.107
			c24.347,5.092,50.919,9.13,79.188,11.94c8.428,0.878,17.09,1.639,25.752,2.224c14.749,1.054,29.849,1.756,45.3,2.166
			c2.517,0.058,5.092,0.117,7.609,0.117c2.458,0.058,4.858,0.117,7.316,0.117c3.219,0.058,6.438,0.058,9.716,0.058
			c2.341,0,4.624,0,6.965-0.058h2.751c3.804-0.059,7.609-0.117,11.413-0.176c3.687-0.058,7.316-0.176,10.945-0.293
			c0.644,0,1.346-0.058,1.99-0.058c12.291-0.41,24.348-1.054,36.17-1.931c2.4-0.176,4.799-0.351,7.199-0.527
			c2.224-0.117,4.448-0.351,6.672-0.527c0.117,0,0.234,0,0.351-0.059h0.176c2.048-0.176,4.038-0.351,6.028-0.527
			c3.98-0.41,7.901-0.819,11.764-1.229c1.112-0.117,2.224-0.234,3.336-0.351c0.351-0.058,0.644-0.058,0.995-0.117
			c3.102-0.351,6.145-0.702,9.189-1.112c1.054-0.117,2.107-0.234,3.102-0.351c0.234-0.058,0.468-0.058,0.702-0.117
			c1.112-0.117,2.224-0.293,3.277-0.41c0.702-0.117,1.405-0.176,2.107-0.293c1.405-0.176,2.809-0.351,4.155-0.585
			c0.702-0.117,1.346-0.176,1.99-0.293c0.293,0,0.527-0.059,0.761-0.059c3.043-0.468,6.028-0.937,9.013-1.405
			c3.219-0.468,6.438-0.995,9.598-1.58c3.219-0.527,6.321-1.112,9.423-1.697c2.926-0.468,5.794-1.053,8.662-1.639
			c0.176-0.059,0.41-0.059,0.585-0.117c3.043-0.585,6.028-1.229,9.013-1.873l5.619-1.229c2.517-0.527,4.975-1.112,7.375-1.697
			c0.059,0,0.117,0,0.117,0c2.048-0.527,4.038-0.995,6.028-1.463c0.351-0.117,0.702-0.234,1.112-0.293
			c2.165-0.527,4.39-1.112,6.497-1.697c1.405-0.351,2.751-0.702,4.097-1.112c1.931-0.527,3.863-1.054,5.736-1.58
			c2.692-0.761,5.268-1.58,7.843-2.4c1.99-0.585,3.98-1.17,5.911-1.873c3.921-1.229,7.726-2.517,11.413-3.863
			c1.814-0.644,3.629-1.346,5.443-1.99c1.171-0.468,2.341-0.878,3.453-1.346C507.376,1.873,509.717,0.936,512,0z"/>
		<g>
			<path style="fill:#C09F93;" d="M298.315,150.475c-2.575,0.293-5.209,0.527-7.843,0.761c-2.575,0.293-5.209,0.468-7.843,0.644
				c-3.921,0.293-7.901,0.468-11.94,0.644l-7.843-7.843L153.576,35.409c2.224,0.234,4.448,0.468,6.731,0.644
				c8.428,0.878,17.09,1.639,25.752,2.224l45.3,45.3l46.295,46.295l17.09,17.09L298.315,150.475z"/>
			<path style="fill:#C09F93;" d="M381.249,131.395c-7.257,2.634-14.69,5.033-22.358,7.257l-6.672-6.672l-91.245-91.245
				c1.58,0,3.16,0,4.741-0.058c3.863,0,7.667-0.059,11.413-0.176c3.687-0.058,7.316-0.176,10.945-0.293
				c0.644,0,1.346-0.058,1.99-0.058l55.718,55.777L381.249,131.395z"/>
			<path style="fill:#C09F93;" d="M197.935,148.421L71.541,22.026c-14.352-3.235-27.861-6.841-40.398-10.785l129.441,129.458
				C172.609,143.843,185.081,146.444,197.935,148.421z"/>
			<path style="fill:#C09F93;" d="M499.534,42.901c-0.819,1.522-1.697,2.985-2.634,4.507c-0.937,1.463-1.873,2.985-2.868,4.448
				c-0.293,0.468-0.644,0.878-0.995,1.346c-1.346,2.049-2.868,4.097-4.448,6.087c0,0.058,0,0.058-0.059,0.117
				c-0.176,0.234-0.351,0.41-0.468,0.585c-0.117,0.234-0.293,0.41-0.468,0.585l-40.15-40.15c2.048-0.527,4.038-0.995,6.028-1.463
				c0.351-0.117,0.702-0.234,1.112-0.293c2.18-0.536,4.316-1.136,6.469-1.715c0.768-0.209,1.543-0.417,2.252-0.626
				c0.644-0.176,1.229-0.351,1.873-0.468c1.931-0.585,3.804-1.112,5.677-1.639l0.058,0.058l28.562,28.562L499.534,42.901z"/>
			<path style="fill:#C09F93;" d="M451.307,94.873c-0.468,0.351-0.936,0.644-1.346,0.937c-1.814,1.346-3.687,2.634-5.619,3.921
				c-0.41,0.293-0.819,0.585-1.229,0.878c-0.819,0.527-1.697,1.053-2.517,1.639c-0.702,0.468-1.405,0.936-2.107,1.405
				c-1.053,0.644-2.048,1.288-3.102,1.931c-0.293,0.176-0.644,0.351-0.995,0.585c-0.059,0.059-0.117,0.059-0.176,0.117
				c-0.234,0.117-0.468,0.293-0.702,0.468l-0.059-0.059L361.759,35c0.351-0.058,0.644-0.058,0.995-0.117
				c3.102-0.351,6.145-0.702,9.189-1.112c1.054-0.117,2.107-0.234,3.102-0.351c0.234-0.058,0.468-0.058,0.702-0.117
				c1.112-0.117,2.224-0.293,3.277-0.41c0.702-0.117,1.405-0.176,2.107-0.293c1.405-0.176,2.809-0.351,4.155-0.585
				c0.936-0.117,1.814-0.234,2.751-0.351L451.307,94.873z"/>
		</g>
	</g>
	<path style="opacity:0.11;fill:#372C29;" d="M512,0c-0.059,2.985-0.351,6.028-0.761,9.013v0.059
		c-0.059,0.234-0.059,0.468-0.117,0.702c-0.176,1.112-0.351,2.165-0.527,3.278c-0.41,2.107-0.936,4.273-1.463,6.438
		c-0.293,1.053-0.644,2.107-0.937,3.16c-0.351,1.112-0.702,2.166-1.053,3.219c-0.351,1.054-0.761,2.107-1.171,3.219
		c-0.819,2.107-1.756,4.214-2.692,6.321c-1.171,2.517-2.458,4.975-3.804,7.433c-1.522,2.751-3.219,5.502-4.975,8.194
		c-0.468,0.702-0.995,1.463-1.463,2.166c-1.463,2.049-2.868,4.097-4.448,6.087c0,0.058,0,0.058-0.059,0.117
		c-0.176,0.234-0.351,0.41-0.468,0.585c-0.117,0.234-0.293,0.41-0.468,0.585v0.059c-1.053,1.346-2.165,2.692-3.278,3.98
		c-2.224,2.634-4.565,5.209-7.023,7.784c-6.204,6.38-13.11,12.583-20.66,18.495c-1.756,1.346-3.512,2.692-5.326,3.98
		c-0.468,0.351-0.936,0.644-1.346,0.937c-1.814,1.346-3.687,2.634-5.619,3.921c-0.41,0.293-0.819,0.585-1.229,0.878
		c-0.819,0.527-1.697,1.053-2.517,1.639c-1.697,1.053-3.453,2.224-5.209,3.336c-0.293,0.176-0.644,0.351-0.995,0.585
		c-0.059,0.059-0.117,0.059-0.176,0.117c-0.117,0.059-0.234,0.117-0.351,0.234c-0.117,0.058-0.234,0.176-0.351,0.234l-0.059-0.059
		c-3.336,1.99-6.731,3.921-10.184,5.853c-3.453,1.873-7.023,3.746-10.652,5.502l-0.059,0.059L387.57,143.1l21.948,21.889
		l-22.533,22.533l22.533,22.533l-65.785,65.785l-23.235-23.235l22.533-22.533l-22.533-22.592l27.391-27.391L325.999,158.2
		l14.924-14.924c-4.272,0.936-8.545,1.873-12.876,2.692c-2.4,0.527-4.799,0.936-7.257,1.346c-1.171,0.176-2.341,0.41-3.512,0.585
		c-2.224,0.351-4.448,0.702-6.672,0.995c-1.931,0.293-3.921,0.585-5.911,0.819c-0.176,0-0.293,0.059-0.468,0.059l-32.892,32.893
		l21.948,21.889l-22.533,22.533l22.533,22.533l-61.922,61.922v-91.596l0.293-0.293l-0.293-0.293V176.11l23.353-23.294
		c-3.921,0-7.901-0.117-11.764-0.234c-3.863-0.176-7.726-0.351-11.589-0.644V40.443c2.517,0.058,5.092,0.117,7.609,0.117
		c2.458,0.058,4.858,0.117,7.316,0.117c3.219,0.058,6.438,0.058,9.716,0.058c2.341,0,4.624,0,6.965-0.058h2.751
		c3.804-0.059,7.609-0.117,11.413-0.176c3.687-0.058,7.316-0.176,10.945-0.293c0.644,0,1.346-0.058,1.99-0.058
		c12.291-0.41,24.348-1.054,36.17-1.931c2.4-0.176,4.799-0.351,7.199-0.527c2.224-0.176,4.448-0.41,6.672-0.585h0.527
		c2.048-0.176,4.038-0.351,6.028-0.527c3.98-0.41,7.901-0.819,11.764-1.229c1.112-0.117,2.224-0.234,3.336-0.351
		c0.351-0.058,0.644-0.058,0.995-0.117c3.102-0.351,6.145-0.702,9.189-1.112c1.054-0.117,2.107-0.234,3.102-0.351
		c0.234-0.058,0.468-0.058,0.702-0.117c1.112-0.117,2.224-0.293,3.277-0.41c0.702-0.117,1.405-0.176,2.107-0.293
		c1.405-0.176,2.809-0.351,4.155-0.585c0.702-0.117,1.346-0.176,1.99-0.293c3.278-0.468,6.555-0.995,9.774-1.463
		c3.219-0.468,6.438-0.995,9.598-1.58c3.219-0.527,6.321-1.112,9.423-1.697c2.926-0.527,5.794-1.053,8.662-1.639
		c0.176-0.059,0.41-0.059,0.585-0.117c3.043-0.585,6.028-1.229,9.013-1.873l5.619-1.229c2.517-0.527,4.975-1.112,7.375-1.697
		c0.059,0,0.117,0,0.117,0c2.048-0.527,4.038-0.995,6.028-1.463c0.351-0.117,0.702-0.234,1.112-0.293
		c2.165-0.527,4.331-1.112,6.497-1.697c0.761-0.234,1.522-0.41,2.224-0.644c1.053-0.293,2.107-0.585,3.16-0.878
		c1.463-0.41,2.926-0.819,4.39-1.229c2.692-0.761,5.326-1.58,7.901-2.341c1.99-0.644,3.98-1.229,5.911-1.873
		c3.921-1.229,7.726-2.575,11.413-3.863c1.814-0.644,3.629-1.346,5.443-1.99c1.171-0.468,2.341-0.878,3.453-1.346
		C507.376,1.873,509.717,0.936,512,0z"/>
</g>
</svg>